<svg xmlns="http://www.w3.org/2000/svg" width="200" height="200" viewBox="0 0 200 200"><g transform="translate(0 0)"><path d="M5.5,70.132C6.412,81.58,15.46,90.5,31.684,91.552V100h7.2V91.492C55.684,90.316,65.5,81.34,65.5,68.308c0-11.844-7.512-17.952-20.94-21.12l-5.676-1.344v-23c7.2.816,11.784,4.752,12.888,10.2H64.4c-.912-11.028-10.368-19.656-25.512-20.592V4h-7.2v8.628c-14.34,1.4-24.12,10.032-24.12,22.236,0,10.8,7.272,17.664,19.356,20.484l4.764,1.176V80.932c-7.38-1.116-12.264-5.16-13.368-10.8ZM31.624,44.14C24.544,42.5,20.7,39.148,20.7,34.108c0-5.64,4.14-9.864,10.98-11.1v21.12h-.06Zm8.3,14.316c8.6,1.992,12.576,5.22,12.576,10.92,0,6.5-4.944,10.968-13.62,11.784V58.216Z" transform="translate(65.5 48)" fill="#407899"/><path d="M100,187.5A87.5,87.5,0,1,1,187.5,100,87.5,87.5,0,0,1,100,187.5Zm0,12.5A100,100,0,1,0,0,100,100,100,0,0,0,100,200Z" fill="#407899"/><path d="M77,145.75A68.75,68.75,0,1,1,145.75,77,68.75,68.75,0,0,1,77,145.75ZM77,152A75,75,0,1,0,2,77a75,75,0,0,0,75,75Z" transform="translate(24 23)" fill="#407899"/></g></svg>